{
    "asset" : {
        "generator" : "Khronos glTF Blender I/O v1.6.16",
        "version" : "2.0"
    },
    "scene" : 0,
    "scenes" : [
        {
            "name" : "Scene",
            "nodes" : [
                0,
                1,
                2,
                3,
                4,
                5
            ]
        }
    ],
    "nodes" : [
        {
            "name" : "Light",
            "rotation" : [
                0.16907575726509094,
                0.7558803558349609,
                -0.27217137813568115,
                0.570947527885437
            ],
            "translation" : [
                4.076245307922363,
                5.903861999511719,
                -1.0054539442062378
            ]
        },
        {
            "name" : "Camera",
            "rotation" : [
                0.483536034822464,
                0.33687159419059753,
                -0.20870360732078552,
                0.7804827094078064
            ],
            "translation" : [
                7.358891487121582,
                4.958309173583984,
                6.925790786743164
            ]
        },
        {
            "name" : "Camera.001",
            "rotation" : [
                0.483536034822464,
                0.33687159419059753,
                -0.20870360732078552,
                0.7804827094078064
            ],
            "translation" : [
                7.358891487121582,
                4.958309173583984,
                6.925790786743164
            ]
        },
        {
            "name" : "Light.001",
            "rotation" : [
                0.16907575726509094,
                0.7558803558349609,
                -0.27217137813568115,
                0.570947527885437
            ],
            "translation" : [
                4.076245307922363,
                5.903861999511719,
                -1.0054539442062378
            ]
        },
        {
            "mesh" : 0,
            "name" : "Rooms.001",
            "rotation" : [
                0,
                0.7071068286895752,
                0,
                0.7071068286895752
            ],
            "scale" : [
                0.07500000298023224,
                1,
                0.699999988079071
            ],
            "translation" : [
                -3.865000009536743,
                0,
                0
            ]
        },
        {
            "mesh" : 1,
            "name" : "Cube",
            "rotation" : [
                -1,
                0,
                0,
                -4.371138828673793e-08
            ],
            "scale" : [
                1.0800000429153442,
                1,
                1.0800000429153442
            ],
            "translation" : [
                4.905930995941162,
                -1.0859577655792236,
                1.8678879737854004
            ]
        }
    ],
    "materials" : [
        {
            "doubleSided" : true,
            "name" : "Wood",
            "normalTexture" : {
                "index" : 0,
                "scale" : 0.5
            },
            "pbrMetallicRoughness" : {
                "baseColorTexture" : {
                    "index" : 1
                },
                "metallicFactor" : 0,
                "metallicRoughnessTexture" : {
                    "index" : 2
                }
            }
        },
        {
            "doubleSided" : true,
            "name" : "rock wall 1",
            "normalTexture" : {
                "index" : 3
            },
            "pbrMetallicRoughness" : {
                "baseColorTexture" : {
                    "index" : 4
                },
                "metallicFactor" : 0,
                "metallicRoughnessTexture" : {
                    "index" : 5
                }
            }
        }
    ],
    "meshes" : [
        {
            "name" : "Cube.010",
            "primitives" : [
                {
                    "attributes" : {
                        "POSITION" : 0,
                        "NORMAL" : 1,
                        "TEXCOORD_0" : 2,
                        "TEXCOORD_1" : 3
                    },
                    "indices" : 4,
                    "material" : 0
                }
            ]
        },
        {
            "name" : "Cube",
            "primitives" : [
                {
                    "attributes" : {
                        "POSITION" : 5,
                        "NORMAL" : 6,
                        "TEXCOORD_0" : 7,
                        "TEXCOORD_1" : 8
                    },
                    "indices" : 9,
                    "material" : 1
                }
            ]
        }
    ],
    "textures" : [
        {
            "sampler" : 0,
            "source" : 0
        },
        {
            "sampler" : 0,
            "source" : 1
        },
        {
            "sampler" : 0,
            "source" : 2
        },
        {
            "sampler" : 0,
            "source" : 3
        },
        {
            "sampler" : 0,
            "source" : 4
        },
        {
            "sampler" : 0,
            "source" : 5
        }
    ],
    "images" : [
        {
            "mimeType" : "image/png",
            "name" : "Wood_wall_Slits_Normal",
            "uri" : "Wood_wall_Slits_Normal.png"
        },
        {
            "mimeType" : "image/png",
            "name" : "Wood_wall_Slits_Base_Color",
            "uri" : "Wood_wall_Slits_Base_Color.png"
        },
        {
            "mimeType" : "image/png",
            "name" : "Wood_wall_Slits_Roughness",
            "uri" : "Wood_wall_Slits_Roughness.png"
        },
        {
            "mimeType" : "image/jpeg",
            "name" : "rock wall 1_normal",
            "uri" : "rock%20wall%201_normal.jpg"
        },
        {
            "mimeType" : "image/jpeg",
            "name" : "rock wall 1_albedo",
            "uri" : "rock%20wall%201_albedo.jpg"
        },
        {
            "mimeType" : "image/png",
            "name" : "rock wall 1_roughness",
            "uri" : "rock%20wall%201_roughness.png"
        }
    ],
    "accessors" : [
        {
            "bufferView" : 0,
            "componentType" : 5126,
            "count" : 1728,
            "max" : [
                79.09683227539062,
                1,
                30.418045043945312
            ],
            "min" : [
                -132.60324096679688,
                -1,
                -4.735668659210205
            ],
            "type" : "VEC3"
        },
        {
            "bufferView" : 1,
            "componentType" : 5126,
            "count" : 1728,
            "type" : "VEC3"
        },
        {
            "bufferView" : 2,
            "componentType" : 5126,
            "count" : 1728,
            "type" : "VEC2"
        },
        {
            "bufferView" : 3,
            "componentType" : 5126,
            "count" : 1728,
            "type" : "VEC2"
        },
        {
            "bufferView" : 4,
            "componentType" : 5123,
            "count" : 2592,
            "type" : "SCALAR"
        },
        {
            "bufferView" : 5,
            "componentType" : 5126,
            "count" : 24,
            "max" : [
                11.917136192321777,
                0.14995098114013672,
                7.637460231781006
            ],
            "min" : [
                -11.917136192321777,
                -0.14995098114013672,
                -7.637460231781006
            ],
            "type" : "VEC3"
        },
        {
            "bufferView" : 6,
            "componentType" : 5126,
            "count" : 24,
            "type" : "VEC3"
        },
        {
            "bufferView" : 7,
            "componentType" : 5126,
            "count" : 24,
            "type" : "VEC2"
        },
        {
            "bufferView" : 8,
            "componentType" : 5126,
            "count" : 24,
            "type" : "VEC2"
        },
        {
            "bufferView" : 9,
            "componentType" : 5123,
            "count" : 36,
            "type" : "SCALAR"
        }
    ],
    "bufferViews" : [
        {
            "buffer" : 0,
            "byteLength" : 20736,
            "byteOffset" : 0
        },
        {
            "buffer" : 0,
            "byteLength" : 20736,
            "byteOffset" : 20736
        },
        {
            "buffer" : 0,
            "byteLength" : 13824,
            "byteOffset" : 41472
        },
        {
            "buffer" : 0,
            "byteLength" : 13824,
            "byteOffset" : 55296
        },
        {
            "buffer" : 0,
            "byteLength" : 5184,
            "byteOffset" : 69120
        },
        {
            "buffer" : 0,
            "byteLength" : 288,
            "byteOffset" : 74304
        },
        {
            "buffer" : 0,
            "byteLength" : 288,
            "byteOffset" : 74592
        },
        {
            "buffer" : 0,
            "byteLength" : 192,
            "byteOffset" : 74880
        },
        {
            "buffer" : 0,
            "byteLength" : 192,
            "byteOffset" : 75072
        },
        {
            "buffer" : 0,
            "byteLength" : 72,
            "byteOffset" : 75264
        }
    ],
    "samplers" : [
        {
            "magFilter" : 9729,
            "minFilter" : 9987
        }
    ],
    "buffers" : [
        {
            "byteLength" : 75336,
            "uri" : "corridorFloor.bin"
        }
    ]
}
